<svg width="615.6px" height="122px" xmlns="http://www.w3.org/2000/svg" viewBox="-57.796856689453136 14 615.5937133789063 122" style="background: rgba(0, 0, 0, 0)" preserveAspectRatio="xMidYMid"><defs><linearGradient id="editing-gradow-gradient" x1="0" x2="1" y1="0.5" y2="0.5" gradientUnits="objectBoundingBox"><stop offset="0" stop-color="#343443"></stop><stop offset="1" stop-color="#5a37dd"></stop></linearGradient><filter id="editing-gradow-filter" x="-100%" y="-100%" width="300%" height="300%"><feFlood flood-color="#fffcd9" result="flood"></feFlood><feComposite operator="in" in2="SourceAlpha" in="flood" result="shadow"></feComposite><feOffset dx="-4" dy="-4" in="SourceGraphic" result="offset-1"></feOffset><feOffset dx="4" dy="4" in="shadow" result="offset-2"></feOffset><feMerge><feMergeNode in="offset-2"></feMergeNode><feMergeNode in="offset-1"></feMergeNode></feMerge></filter></defs><g filter="url(#editing-gradow-filter)"><g transform="matrix(1.4,0,0,1.5,-26.7,166.9)"><path d="M -4 -45.8 L -18 -45.8 L -9.8 -88.1 L 4.3 -88.1 L -4 -45.8 Z M 51.7 -44.6 L 51.7 -44.6 L 51.7 -44.6 Q 44 -44.6 44 -50.6 L 44 -50.6 L 44 -50.6 Q 44 -53.2 45.1 -58.3 L 45.1 -58.3 L 45.1 -58.3 Q 46.2 -63.4 46.6 -65.4 L 46.6 -65.4 L 46.6 -65.4 Q 47.5 -70.1 47.5 -71.6 L 47.5 -71.6 L 47.5 -71.6 Q 47.5 -74.8 45.1 -74.8 L 45.1 -74.8 L 45.1 -74.8 Q 43.5 -74.8 42 -72.6 L 42 -72.6 L 42 -72.6 Q 40.4 -70.4 39.7 -66 L 39.7 -66 L 35.7 -45.8 L 23.3 -44.6 L 26.7 -62 L 26.7 -62 Q 27.3 -64.8 27.8 -68.1 L 27.8 -68.1 L 27.8 -68.1 Q 28.3 -71.4 28.3 -71.9 L 28.3 -71.9 L 28.3 -71.9 Q 28.3 -74.8 26.1 -74.8 L 26.1 -74.8 L 26.1 -74.8 Q 24.7 -74.8 23.1 -72.7 L 23.1 -72.7 L 23.1 -72.7 Q 21.5 -70.5 20.6 -66 L 20.6 -66 L 16.7 -45.8 L 4.1 -44.6 L 10.8 -78.5 L 21.2 -79.8 L 20.1 -73.3 L 20.1 -73.3 Q 21.8 -76.7 24.9 -78.3 L 24.9 -78.3 L 24.9 -78.3 Q 27.9 -79.8 32.7 -79.8 L 32.7 -79.8 L 32.7 -79.8 Q 35.5 -79.8 37.3 -78.4 L 37.3 -78.4 L 37.3 -78.4 Q 39.1 -77.1 39.6 -74.9 L 39.6 -74.9 L 39.6 -74.9 Q 40.7 -77.1 43.5 -78.4 L 43.5 -78.4 L 43.5 -78.4 Q 46.3 -79.8 49.7 -79.8 L 49.7 -79.8 L 49.7 -79.8 Q 53.2 -79.8 54.8 -79 L 54.8 -79 L 54.8 -79 Q 56.5 -78.3 57.6 -77.1 L 57.6 -77.1 L 57.6 -77.1 Q 59.3 -74.8 59.3 -70.7 L 59.3 -70.7 L 59.3 -70.7 Q 59.3 -66.7 57.6 -58.3 L 57.6 -58.3 L 57.6 -58.3 Q 56.7 -54.2 56.7 -52.7 L 56.7 -52.7 L 56.7 -52.7 Q 56.7 -51.2 57.5 -50.3 L 57.5 -50.3 L 57.5 -50.3 Q 58.4 -49.4 59.7 -49.3 L 59.7 -49.3 L 59.7 -49.3 Q 59 -47.1 56.8 -45.8 L 56.8 -45.8 L 56.8 -45.8 Q 54.6 -44.6 51.7 -44.6 Z M 67.4 -47.8 L 67.4 -47.8 L 67.4 -47.8 Q 65.9 -49.4 65.2 -52 L 65.2 -52 L 65.2 -52 Q 64.5 -54.7 64.5 -59 L 64.5 -59 L 64.5 -59 Q 64.5 -63.2 66 -67.1 L 66 -67.1 L 66 -67.1 Q 67.5 -71.1 70.2 -73.9 L 70.2 -73.9 L 70.2 -73.9 Q 75.7 -79.8 84.8 -79.8 L 84.8 -79.8 L 84.8 -79.8 Q 88 -79.8 90.4 -78.7 L 90.4 -78.7 L 101.3 -79.8 L 96.6 -54.8 L 96.6 -54.8 Q 96.4 -54 96.4 -52.6 L 96.4 -52.6 L 96.4 -52.6 Q 96.4 -51.2 97.3 -50.3 L 97.3 -50.3 L 97.3 -50.3 Q 98.1 -49.4 99.4 -49.3 L 99.4 -49.3 L 99.4 -49.3 Q 98.8 -47.1 96.4 -45.8 L 96.4 -45.8 L 96.4 -45.8 Q 94.1 -44.6 91.5 -44.6 L 91.5 -44.6 L 91.5 -44.6 Q 88.9 -44.6 87.1 -45.5 L 87.1 -45.5 L 87.1 -45.5 Q 85.3 -46.5 84.8 -48.2 L 84.8 -48.2 L 84.8 -48.2 Q 83.8 -46.6 81.6 -45.6 L 81.6 -45.6 L 81.6 -45.6 Q 79.5 -44.6 76.5 -44.6 L 76.5 -44.6 L 76.5 -44.6 Q 73.6 -44.6 71.3 -45.3 L 71.3 -45.3 L 71.3 -45.3 Q 68.9 -46.1 67.4 -47.8 Z M 80.9 -73.7 L 80.9 -73.7 L 80.9 -73.7 Q 80.2 -72.6 79.5 -70.6 L 79.5 -70.6 L 79.5 -70.6 Q 78.9 -68.7 77.8 -63.5 L 77.8 -63.5 L 77.8 -63.5 Q 76.8 -58.3 76.8 -54.5 L 76.8 -54.5 L 76.8 -54.5 Q 76.8 -50.8 77.3 -49.7 L 77.3 -49.7 L 77.3 -49.7 Q 77.9 -48.7 78.9 -48.7 L 78.9 -48.7 L 78.9 -48.7 Q 81 -48.7 82.5 -50.6 L 82.5 -50.6 L 82.5 -50.6 Q 84 -52.6 84.6 -56 L 84.6 -56 L 88 -74.8 L 88 -74.8 Q 86.6 -75.9 85.1 -75.9 L 85.1 -75.9 L 85.1 -75.9 Q 83.5 -75.9 82.6 -75.4 L 82.6 -75.4 L 82.6 -75.4 Q 81.6 -74.9 80.9 -73.7 Z M 109.1 -72.6 L 109.1 -72.6 L 109.1 -72.6 Q 111.3 -75.7 114.6 -77.7 L 114.6 -77.7 L 114.6 -77.7 Q 117.9 -79.8 121.9 -79.8 L 121.9 -79.8 L 121.9 -79.8 Q 125.9 -79.8 127.8 -78.5 L 127.8 -78.5 L 140.4 -79.8 L 136 -55.2 L 136 -55.2 Q 133.8 -42.6 129.1 -37.7 L 129.1 -37.7 L 129.1 -37.7 Q 124.5 -33 115.7 -33 L 115.7 -33 L 115.7 -33 Q 109 -33 105.1 -35.1 L 105.1 -35.1 L 105.1 -35.1 Q 101.3 -37.3 101.3 -40.8 L 101.3 -40.8 L 101.3 -40.8 Q 101.3 -43.4 103.3 -44.9 L 103.3 -44.9 L 103.3 -44.9 Q 105.2 -46.4 108.3 -46.4 L 108.3 -46.4 L 108.3 -46.4 Q 111 -46.4 113.1 -45.2 L 113.1 -45.2 L 113.1 -45.2 Q 114.3 -44.6 114.8 -43.7 L 114.8 -43.7 L 114.8 -43.7 Q 113.4 -42.4 113.4 -40.3 L 113.4 -40.3 L 113.4 -40.3 Q 113.4 -37.5 115.9 -37.5 L 115.9 -37.5 L 115.9 -37.5 Q 120.2 -37.5 122.7 -47.6 L 122.7 -47.6 L 122.7 -47.6 Q 123.4 -50.4 123.9 -53.1 L 123.9 -53.1 L 123.9 -53.1 Q 121.1 -49.6 114.5 -49.6 L 114.5 -49.6 L 114.5 -49.6 Q 110 -49.6 107.4 -51.8 L 107.4 -51.8 L 107.4 -51.8 Q 104.7 -54 104.7 -59.1 L 104.7 -59.1 L 104.7 -59.1 Q 104.7 -62.3 105.8 -65.9 L 105.8 -65.9 L 105.8 -65.9 Q 106.9 -69.5 109.1 -72.6 Z M 117.4 -58.9 L 117.4 -58.9 L 117.4 -58.9 Q 117.4 -54.5 119.6 -54.5 L 119.6 -54.5 L 119.6 -54.5 Q 121.2 -54.5 122.7 -56.2 L 122.7 -56.2 L 122.7 -56.2 Q 123.8 -57.5 124.3 -59.5 L 124.3 -59.5 L 127.5 -76 L 127.5 -76 Q 127.2 -76 126.9 -76.2 L 126.9 -76.2 L 126.9 -76.2 Q 126.2 -76.4 125.4 -76.4 L 125.4 -76.4 L 125.4 -76.4 Q 121.5 -76.4 119.2 -70 L 119.2 -70 L 119.2 -70 Q 117.4 -65 117.4 -58.9 Z M 168.8 -56.7 L 168.8 -56.7 L 168.8 -56.7 Q 170.4 -55.6 170.4 -53.2 L 170.4 -53.2 L 170.4 -53.2 Q 170.4 -50.8 169.2 -49.2 L 169.2 -49.2 L 169.2 -49.2 Q 168 -47.7 166 -46.7 L 166 -46.7 L 166 -46.7 Q 161.9 -44.6 157.5 -44.6 L 157.5 -44.6 L 157.5 -44.6 Q 153.1 -44.6 150.5 -45.5 L 150.5 -45.5 L 150.5 -45.5 Q 147.9 -46.5 146.1 -48.3 L 146.1 -48.3 L 146.1 -48.3 Q 142.8 -51.7 142.8 -57.9 L 142.8 -57.9 L 142.8 -57.9 Q 142.8 -67.5 148 -73.4 L 148 -73.4 L 148 -73.4 Q 153.6 -79.8 163.4 -79.8 L 163.4 -79.8 L 163.4 -79.8 Q 169.5 -79.8 172.5 -77.2 L 172.5 -77.2 L 172.5 -77.2 Q 174.8 -75.3 174.8 -72.1 L 174.8 -72.1 L 174.8 -72.1 Q 174.8 -60.9 155.3 -60.9 L 155.3 -60.9 L 155.3 -60.9 Q 155 -59.2 155 -57.8 L 155 -57.8 L 155 -57.8 Q 155 -54.9 156.4 -53.7 L 156.4 -53.7 L 156.4 -53.7 Q 157.7 -52.6 160.1 -52.6 L 160.1 -52.6 L 160.1 -52.6 Q 162.5 -52.6 165.1 -53.7 L 165.1 -53.7 L 165.1 -53.7 Q 167.7 -54.9 168.8 -56.7 Z M 155.7 -63.6 L 155.7 -63.6 L 155.7 -63.6 Q 160.3 -63.6 162.9 -66.4 L 162.9 -66.4 L 162.9 -66.4 Q 165.5 -69.1 165.5 -73.4 L 165.5 -73.4 L 165.5 -73.4 Q 165.5 -74.9 165 -75.7 L 165 -75.7 L 165 -75.7 Q 164.4 -76.5 163.4 -76.5 L 163.4 -76.5 L 163.4 -76.5 Q 162.3 -76.5 161.3 -76.1 L 161.3 -76.1 L 161.3 -76.1 Q 160.4 -75.7 159.5 -74.3 L 159.5 -74.3 L 159.5 -74.3 Q 157.1 -71.1 155.7 -63.6 Z M 216 -66.4 L 229 -67.6 L 229 -67.6 Q 224.4 -57.5 224.4 -45.8 L 224.4 -45.8 L 224.4 -45.8 Q 222.6 -44.6 220.1 -44.6 L 220.1 -44.6 L 220.1 -44.6 Q 217.6 -44.6 216 -45.7 L 216 -45.7 L 216 -45.7 Q 214.4 -46.9 214 -48.1 L 214 -48.1 L 214 -48.1 Q 212.4 -46.5 209.9 -45.5 L 209.9 -45.5 L 209.9 -45.5 Q 207.3 -44.6 204.5 -44.6 L 204.5 -44.6 L 204.5 -44.6 Q 201.8 -44.6 199.4 -45.5 L 199.4 -45.5 L 199.4 -45.5 Q 197 -46.3 195.1 -48.3 L 195.1 -48.3 L 195.1 -48.3 Q 191 -52.7 191 -60.9 L 191 -60.9 L 191 -60.9 Q 191 -73.7 197.9 -81.4 L 197.9 -81.4 L 197.9 -81.4 Q 204.9 -89.4 217.4 -89.4 L 217.4 -89.4 L 217.4 -89.4 Q 226 -89.4 229.1 -84.9 L 229.1 -84.9 L 229.1 -84.9 Q 230 -83.5 230 -81.8 L 230 -81.8 L 230 -81.8 Q 230 -80.1 229.3 -78.6 L 229.3 -78.6 L 229.3 -78.6 Q 228.6 -77.2 227.4 -76 L 227.4 -76 L 227.4 -76 Q 224.7 -73.5 221.3 -73.5 L 221.3 -73.5 L 221.3 -73.5 Q 219.9 -73.5 218.7 -73.9 L 218.7 -73.9 L 218.7 -73.9 Q 218.9 -75.9 218.9 -78.1 L 218.9 -78.1 L 218.9 -78.1 Q 218.9 -80.3 218.8 -81.4 L 218.8 -81.4 L 218.8 -81.4 Q 218.6 -82.4 218.2 -83.2 L 218.2 -83.2 L 218.2 -83.2 Q 217.4 -84.9 215.6 -84.9 L 215.6 -84.9 L 215.6 -84.9 Q 213.7 -84.9 211.7 -83 L 211.7 -83 L 211.7 -83 Q 209.7 -81 208.1 -77.8 L 208.1 -77.8 L 208.1 -77.8 Q 204.6 -70.7 204.6 -62 L 204.6 -62 L 204.6 -62 Q 204.6 -58.1 206.1 -55.2 L 206.1 -55.2 L 206.1 -55.2 Q 207.8 -52.2 210.7 -52.2 L 210.7 -52.2 L 210.7 -52.2 Q 211.7 -52.2 212.7 -52.7 L 212.7 -52.7 L 212.7 -52.7 Q 213.6 -53.2 214 -53.6 L 214 -53.6 L 216 -66.4 Z M 234.9 -47.8 L 234.9 -47.8 L 234.9 -47.8 Q 233.4 -49.4 232.7 -52 L 232.7 -52 L 232.7 -52 Q 232 -54.7 232 -59 L 232 -59 L 232 -59 Q 232 -63.2 233.5 -67.1 L 233.5 -67.1 L 233.5 -67.1 Q 235 -71.1 237.7 -73.9 L 237.7 -73.9 L 237.7 -73.9 Q 243.2 -79.8 252.3 -79.8 L 252.3 -79.8 L 252.3 -79.8 Q 255.5 -79.8 257.9 -78.7 L 257.9 -78.7 L 268.8 -79.8 L 264.1 -54.8 L 264.1 -54.8 Q 263.9 -54 263.9 -52.6 L 263.9 -52.6 L 263.9 -52.6 Q 263.9 -51.2 264.8 -50.3 L 264.8 -50.3 L 264.8 -50.3 Q 265.6 -49.4 266.9 -49.3 L 266.9 -49.3 L 266.9 -49.3 Q 266.3 -47.1 263.9 -45.8 L 263.9 -45.8 L 263.9 -45.8 Q 261.6 -44.6 259 -44.6 L 259 -44.6 L 259 -44.6 Q 256.4 -44.6 254.6 -45.5 L 254.6 -45.5 L 254.6 -45.5 Q 252.8 -46.5 252.3 -48.2 L 252.3 -48.2 L 252.3 -48.2 Q 251.3 -46.6 249.1 -45.6 L 249.1 -45.6 L 249.1 -45.6 Q 246.9 -44.6 244 -44.6 L 244 -44.6 L 244 -44.6 Q 241.1 -44.6 238.8 -45.3 L 238.8 -45.3 L 238.8 -45.3 Q 236.4 -46.1 234.9 -47.8 Z M 248.4 -73.7 L 248.4 -73.7 L 248.4 -73.7 Q 247.6 -72.6 247 -70.6 L 247 -70.6 L 247 -70.6 Q 246.4 -68.7 245.3 -63.5 L 245.3 -63.5 L 245.3 -63.5 Q 244.3 -58.3 244.3 -54.5 L 244.3 -54.5 L 244.3 -54.5 Q 244.3 -50.8 244.8 -49.7 L 244.8 -49.7 L 244.8 -49.7 Q 245.4 -48.7 246.4 -48.7 L 246.4 -48.7 L 246.4 -48.7 Q 248.5 -48.7 250 -50.6 L 250 -50.6 L 250 -50.6 Q 251.5 -52.6 252.1 -56 L 252.1 -56 L 255.5 -74.8 L 255.5 -74.8 Q 254.1 -75.9 252.5 -75.9 L 252.5 -75.9 L 252.5 -75.9 Q 251 -75.9 250 -75.4 L 250 -75.4 L 250 -75.4 Q 249.1 -74.9 248.4 -73.7 Z M 287.6 -49.4 L 287.6 -49.4 L 287.6 -49.4 Q 285.6 -44.6 279.3 -44.6 L 279.3 -44.6 L 279.3 -44.6 Q 276.1 -44.6 274 -46.8 L 274 -46.8 L 274 -46.8 Q 272.4 -48.7 272.4 -50.8 L 272.4 -50.8 L 272.4 -50.8 Q 272.4 -55.6 274.6 -66.1 L 274.6 -66.1 L 279.3 -90.6 L 292.3 -91.9 L 286 -59.5 L 286 -59.5 Q 285 -54.8 285 -53.1 L 285 -53.1 L 285 -53.1 Q 285 -49.5 287.6 -49.4 Z M 308.3 -49.4 L 308.3 -49.4 L 308.3 -49.4 Q 306.3 -44.6 300 -44.6 L 300 -44.6 L 300 -44.6 Q 296.8 -44.6 294.8 -46.8 L 294.8 -46.8 L 294.8 -46.8 Q 293.1 -48.7 293.1 -50.8 L 293.1 -50.8 L 293.1 -50.8 Q 293.1 -55.6 295.3 -66.1 L 295.3 -66.1 L 300 -90.6 L 313 -91.9 L 306.8 -59.5 L 306.8 -59.5 Q 305.7 -54.8 305.7 -53.1 L 305.7 -53.1 L 305.7 -53.1 Q 305.7 -49.5 308.3 -49.4 Z M 339.7 -56.7 L 339.7 -56.7 L 339.7 -56.7 Q 341.3 -55.6 341.3 -53.2 L 341.3 -53.2 L 341.3 -53.2 Q 341.3 -50.8 340.1 -49.2 L 340.1 -49.2 L 340.1 -49.2 Q 338.8 -47.7 336.9 -46.7 L 336.9 -46.7 L 336.9 -46.7 Q 332.8 -44.6 328.4 -44.6 L 328.4 -44.6 L 328.4 -44.6 Q 323.9 -44.6 321.3 -45.5 L 321.3 -45.5 L 321.3 -45.5 Q 318.8 -46.5 317 -48.3 L 317 -48.3 L 317 -48.3 Q 313.6 -51.7 313.6 -57.9 L 313.6 -57.9 L 313.6 -57.9 Q 313.6 -67.5 318.9 -73.4 L 318.9 -73.4 L 318.9 -73.4 Q 324.5 -79.8 334.3 -79.8 L 334.3 -79.8 L 334.3 -79.8 Q 340.4 -79.8 343.4 -77.2 L 343.4 -77.2 L 343.4 -77.2 Q 345.6 -75.3 345.6 -72.1 L 345.6 -72.1 L 345.6 -72.1 Q 345.6 -60.9 326.2 -60.9 L 326.2 -60.9 L 326.2 -60.9 Q 325.9 -59.2 325.9 -57.8 L 325.9 -57.8 L 325.9 -57.8 Q 325.9 -54.9 327.2 -53.7 L 327.2 -53.7 L 327.2 -53.7 Q 328.5 -52.6 331 -52.6 L 331 -52.6 L 331 -52.6 Q 333.4 -52.6 336 -53.7 L 336 -53.7 L 336 -53.7 Q 338.6 -54.9 339.7 -56.7 Z M 326.6 -63.6 L 326.6 -63.6 L 326.6 -63.6 Q 331.2 -63.6 333.8 -66.4 L 333.8 -66.4 L 333.8 -66.4 Q 336.4 -69.1 336.4 -73.4 L 336.4 -73.4 L 336.4 -73.4 Q 336.4 -74.9 335.9 -75.7 L 335.9 -75.7 L 335.9 -75.7 Q 335.3 -76.5 334.2 -76.5 L 334.2 -76.5 L 334.2 -76.5 Q 333.2 -76.5 332.2 -76.1 L 332.2 -76.1 L 332.2 -76.1 Q 331.3 -75.7 330.3 -74.3 L 330.3 -74.3 L 330.3 -74.3 Q 328 -71.1 326.6 -63.6 Z M 367.8 -63.8 L 367.8 -63.8 L 367.8 -63.8 Q 370.1 -67.9 370.1 -72.1 L 370.1 -72.1 L 370.1 -72.1 Q 370.1 -74.8 368.2 -74.8 L 368.2 -74.8 L 368.2 -74.8 Q 366.6 -74.8 365 -72.2 L 365 -72.2 L 365 -72.2 Q 363.4 -69.6 362.8 -66.2 L 362.8 -66.2 L 359.5 -45.8 L 346.3 -44.6 L 352.8 -78.5 L 363.4 -79.8 L 362.2 -73.3 L 362.2 -73.3 Q 365.3 -79.8 372.4 -79.8 L 372.4 -79.8 L 372.4 -79.8 Q 376.1 -79.8 378.1 -77.8 L 378.1 -77.8 L 378.1 -77.8 Q 380.1 -75.9 380.1 -72 L 380.1 -72 L 380.1 -72 Q 380.1 -68 377.5 -65.5 L 377.5 -65.5 L 377.5 -65.5 Q 374.9 -63.1 370.5 -63.1 L 370.5 -63.1 L 370.5 -63.1 Q 368.6 -63.1 367.8 -63.8 Z M 401.5 -53.1 L 401.5 -53.1 L 401.5 -53.1 Q 398.2 -49.6 392.1 -49.6 L 392.1 -49.6 L 392.1 -49.6 Q 384.5 -49.6 382.9 -55.2 L 382.9 -55.2 L 382.9 -55.2 Q 382.4 -56.8 382.4 -58.7 L 382.4 -58.7 L 382.4 -58.7 Q 382.4 -60.6 382.8 -62.5 L 382.8 -62.5 L 385.8 -78.5 L 398.8 -79.8 L 395.2 -61.1 L 395.2 -61.1 Q 395.1 -60.3 394.9 -59.4 L 394.9 -59.4 L 394.9 -59.4 Q 394.7 -58.5 394.7 -57.6 L 394.7 -57.6 L 394.7 -57.6 Q 394.7 -56.7 395 -56 L 395 -56 L 395 -56 Q 395.4 -55.4 395.8 -55.1 L 395.8 -55.1 L 395.8 -55.1 Q 396.6 -54.5 398 -54.5 L 398 -54.5 L 398 -54.5 Q 399.3 -54.5 400.5 -56.2 L 400.5 -56.2 L 400.5 -56.2 Q 401.7 -57.9 402.3 -60.7 L 402.3 -60.7 L 405.8 -78.5 L 418.4 -79.8 L 413.6 -54.6 L 413.6 -54.6 Q 411.2 -42.3 406.4 -37.5 L 406.4 -37.5 L 406.4 -37.5 Q 403.9 -35 400.6 -34 L 400.6 -34 L 400.6 -34 Q 397.4 -33 393.2 -33 L 393.2 -33 L 393.2 -33 Q 386.5 -33 382.7 -35.1 L 382.7 -35.1 L 382.7 -35.1 Q 378.8 -37.2 378.8 -40.7 L 378.8 -40.7 L 378.8 -40.7 Q 378.8 -43.3 380.8 -44.8 L 380.8 -44.8 L 380.8 -44.8 Q 382.8 -46.3 385.9 -46.3 L 385.9 -46.3 L 385.9 -46.3 Q 388.6 -46.3 390.6 -45.2 L 390.6 -45.2 L 390.6 -45.2 Q 391.8 -44.5 392.4 -43.6 L 392.4 -43.6 L 392.4 -43.6 Q 390.9 -42.3 390.9 -40.2 L 390.9 -40.2 L 390.9 -40.2 Q 390.9 -37.4 393.5 -37.4 L 393.5 -37.4 L 393.5 -37.4 Q 397.7 -37.4 400.2 -47.1 L 400.2 -47.1 L 400.2 -47.1 Q 400.9 -50 401.5 -53.1 Z" fill="url(#editing-gradow-gradient)"></path></g></g><style>text {
  font-size: 64px;
  font-family: Arial Black;
  dominant-baseline: central;
  text-anchor: middle;
}</style></svg>